<mxfile host="65bd71144e">
    <diagram id="TCv23A0WsjEr3DPqJ7oG" name="Page-1">
        <mxGraphModel dx="556" dy="669" grid="1" gridSize="10" guides="1" tooltips="1" connect="1" arrows="1" fold="1" page="1" pageScale="1" pageWidth="850" pageHeight="1100" math="0" shadow="0">
            <root>
                <mxCell id="0"/>
                <mxCell id="1" parent="0"/>
                <mxCell id="2" value="user" style="rounded=0;whiteSpace=wrap;html=1;" vertex="1" parent="1">
                    <mxGeometry x="270" y="120" width="100" height="50" as="geometry"/>
                </mxCell>
                <mxCell id="3" value="email" style="ellipse;whiteSpace=wrap;html=1;" vertex="1" parent="1">
                    <mxGeometry x="170" y="210" width="70" height="40" as="geometry"/>
                </mxCell>
                <mxCell id="8" value="list of urls" style="ellipse;whiteSpace=wrap;html=1;" vertex="1" parent="1">
                    <mxGeometry x="400" y="210" width="70" height="40" as="geometry"/>
                </mxCell>
                <mxCell id="9" value="interval" style="ellipse;whiteSpace=wrap;html=1;" vertex="1" parent="1">
                    <mxGeometry x="200" y="300" width="70" height="40" as="geometry"/>
                </mxCell>
                <mxCell id="10" value="stop date" style="ellipse;whiteSpace=wrap;html=1;" vertex="1" parent="1">
                    <mxGeometry x="370" y="300" width="70" height="40" as="geometry"/>
                </mxCell>
            </root>
        </mxGraphModel>
    </diagram>
</mxfile>